<svg xmlns="http://www.w3.org/2000/svg" xmlns:xlink="http://www.w3.org/1999/xlink"><symbol id="sprite-access" viewBox="0 0 1024 1024"><title/><path d="M325.818 738.909L81.455 494.546 0 576l325.818 325.818L1024 203.637l-81.454-81.454-616.727 616.726z"/></symbol><symbol id="sprite-arrow-r" viewBox="0 0 1024 1024"><title/><path d="M512 .002l-90.24 90.239L778.88 448H0v128h778.88L421.76 933.759l90.24 90.24 512.001-511.998L512 .003z"/></symbol><symbol fill="none" id="sprite-cherry" viewBox="0 0 97 96"><title>cherry</title><g clip-path="url(#clip0_4701_12673)"><g filter="url(#filter0_d_4701_12673)" stroke="#FF40E4" stroke-width="5"><path d="M63.206 67.866c5.76 0 10.43-4.67 10.43-10.43s-4.67-10.43-10.43-10.43-10.43 4.67-10.43 10.43 4.67 10.43 10.43 10.43zM39.427 72c5.76 0 10.43-4.67 10.43-10.43s-4.67-10.43-10.43-10.43-10.43 4.67-10.43 10.43S33.667 72 39.427 72zm17.577-37.316c-3.245-6.258-9.735-10.662-17.152-10.662-4.636-.232-8.576 1.39-11.82 3.94 3.244 6.258 9.734 10.662 17.15 10.662 4.405 0 8.577-1.39 11.822-3.94z" fill="#FF40E4" fill-opacity=".3"/><path d="M41.938 51.14c0-4.867 1.855-9.04 4.636-12.516m10.43-3.94c1.159 2.55 2.086 5.563 2.086 8.576 0 2.086-.232 4.172-.927 6.026"/></g><path d="M24.843 9.4c14.38-8.732 32.58-8.717 46.945.047M9.705 24.487C.893 38.882.878 57.142 9.659 71.55m15.125 15.125c14.408 8.78 32.668 8.766 47.063-.046M86.933 71.49c8.733-14.379 8.718-32.578-.046-46.944" stroke="#0700D0" stroke-width="2.5" stroke-linecap="round" stroke-linejoin="round"/><circle cx="16.376" cy="79.957" r="4.304" transform="rotate(-45 16.376 79.957)" stroke="#FF40E4" stroke-width="2.5" stroke-linecap="round" stroke-linejoin="round"/><circle cx="80.289" cy="16.044" r="4.304" transform="rotate(-45 80.29 16.044)" stroke="#FF40E4" stroke-width="2.5" stroke-linecap="round" stroke-linejoin="round"/><circle cx="16.376" cy="16.044" r="4.304" transform="rotate(-45 16.376 16.044)" stroke="#FF40E4" stroke-width="2.5" stroke-linecap="round" stroke-linejoin="round"/><circle cx="80.289" cy="79.957" r="4.304" transform="rotate(-45 80.29 79.957)" stroke="#FF40E4" stroke-width="2.5" stroke-linecap="round" stroke-linejoin="round"/></g><defs><clipPath id="clip0_4701_12673"><path fill="#fff" transform="translate(.333)" d="M0 0h96v96H0z"/></clipPath><filter id="filter0_d_4701_12673" x="4.859" y="1.5" width="91.276" height="93" filterUnits="userSpaceOnUse" color-interpolation-filters="sRGB"><feFlood flood-opacity="0" result="BackgroundImageFix"/><feColorMatrix in="SourceAlpha" values="0 0 0 0 0 0 0 0 0 0 0 0 0 0 0 0 0 0 127 0" result="hardAlpha"/><feOffset/><feGaussianBlur stdDeviation="10"/><feComposite in2="hardAlpha" operator="out"/><feColorMatrix values="0 0 0 0 1 0 0 0 0 0.25098 0 0 0 0 0.894118 0 0 0 0.7 0"/><feBlend in2="BackgroundImageFix" result="effect1_dropShadow_4701_12673"/><feBlend in="SourceGraphic" in2="effect1_dropShadow_4701_12673" result="shape"/></filter></defs></symbol><symbol id="sprite-chevrone-down" viewBox="0 0 1024 1024"><title/><path d="M903.679 195.842l-391.68 390.826L120.32 195.842 0 316.161l511.999 511.998 512-511.998-120.32-120.319z"/></symbol><symbol id="sprite-cross" viewBox="0 0 1024 1024"><title/><path d="M1024 103.132L920.869.001 512 408.868 103.132.001.001 103.132 408.869 512 .001 920.868l103.131 103.131L512 615.131l408.869 408.868L1024 920.868 615.131 512 1024 103.132z"/></symbol><symbol id="sprite-crown-tabs" viewBox="0 0 1024 1024"><title/><path d="M249.418 894.311c0-23.321 18.906-42.227 42.227-42.227h439.467c23.322 0 42.227 18.906 42.227 42.227s-18.905 42.227-42.227 42.227H291.645c-23.321 0-42.227-18.905-42.227-42.227zM511.399 216.1a42.228 42.228 0 0139.596 27.553l78.058 210.636c9.877 26.654 42.735 36.132 65.291 18.835l158.97-121.905c14.474-11.099 34.439-11.65 49.504-1.367s21.823 29.077 16.759 46.599L825.064 723.49C809.4 777.69 759.781 815 703.363 815H319.435c-56.418 0-106.037-37.309-121.7-91.51l-94.514-327.039c-5.064-17.522 1.695-36.316 16.76-46.599s35.029-9.732 49.502 1.367l158.97 121.905c22.557 17.297 55.414 7.817 65.292-18.835l78.058-210.636a42.228 42.228 0 0139.595-27.553zm0 163.745l-38.463 103.79c-29.632 79.96-128.205 108.396-195.873 56.506l-57.048-43.747 58.855 203.649c5.22 18.067 21.761 30.504 40.566 30.504h383.928c18.807 0 35.346-12.437 40.567-30.504l58.854-203.649-57.048 43.747c-67.667 51.89-166.241 23.454-195.873-56.506l-38.463-103.79z"/><path d="M920.845 306.597c-9.021 0-16.333 7.313-16.333 16.333s7.313 16.333 16.333 16.333c9.021 0 16.333-7.313 16.333-16.333s-7.313-16.333-16.333-16.333zM820.058 322.93c0-55.663 45.124-100.787 100.787-100.787s100.787 45.124 100.787 100.787c0 55.663-45.124 100.787-100.787 100.787S820.058 378.593 820.058 322.93zM511.402 171.917c-9.021 0-16.333 7.313-16.333 16.333s7.313 16.333 16.333 16.333c9.021 0 16.333-7.313 16.333-16.333s-7.313-16.333-16.333-16.333zM410.615 188.25c0-55.663 45.124-100.787 100.787-100.787s100.787 45.124 100.787 100.787-45.125 100.787-100.787 100.787c-55.663 0-100.787-45.124-100.787-100.787zM103.154 306.6c-9.021 0-16.333 7.313-16.333 16.333s7.313 16.332 16.333 16.332 16.333-7.313 16.333-16.332c0-9.021-7.313-16.333-16.333-16.333zM2.367 322.934c0-55.663 45.124-100.787 100.787-100.787s100.787 45.124 100.787 100.787c0 55.662-45.124 100.787-100.787 100.787S2.367 378.596 2.367 322.934z"/></symbol><symbol fill="none" id="sprite-crown" viewBox="0 0 97 96"><title>crown</title><g clip-path="url(#clip0_4701_12750)" stroke-linejoin="round"><path d="M25.177 9.4c14.38-8.732 32.58-8.717 46.945.047m-62.083 15.04C1.227 38.882 1.212 57.142 9.993 71.55m15.125 15.125c14.408 8.78 32.668 8.766 47.063-.046M87.267 71.49C96 57.111 95.985 38.912 87.22 24.546" stroke="#0700D0" stroke-width="2.5" stroke-linecap="round"/><circle cx="16.71" cy="79.957" r="4.304" transform="rotate(-45 16.71 79.957)" stroke="#F90" stroke-width="2.5" stroke-linecap="round"/><circle cx="80.623" cy="16.044" r="4.304" transform="rotate(-45 80.623 16.044)" stroke="#F90" stroke-width="2.5" stroke-linecap="round"/><circle cx="16.71" cy="16.044" r="4.304" transform="rotate(-45 16.71 16.044)" stroke="#F90" stroke-width="2.5" stroke-linecap="round"/><circle cx="80.623" cy="79.957" r="4.304" transform="rotate(-45 80.623 79.957)" stroke="#F90" stroke-width="2.5" stroke-linecap="round"/><g filter="url(#filter0_d_4701_12750)" stroke="#F90" stroke-width="5"><path d="M39.667 74h18" stroke-linecap="round"/><path d="M48.667 35.737l5.236 14.13c.92 2.483 3.982 3.366 6.084 1.754l10.796-8.279-5.925 20.504a3.935 3.935 0 01-3.78 2.842H36.255a3.935 3.935 0 01-3.78-2.842L26.55 43.342l10.797 8.28c2.101 1.611 5.163.728 6.084-1.756l5.236-14.129z" fill="#F90" fill-opacity=".3"/><circle cx="23.08" cy="37.498" fill="#F90" fill-opacity=".3" r="3.834"/><circle cx="74.254" cy="37.498" fill="#F90" fill-opacity=".3" r="3.834"/><circle cx="48.666" cy="29.834" fill="#F90" fill-opacity=".3" r="3.834"/></g></g><defs><clipPath id="clip0_4701_12750"><path fill="#fff" transform="translate(.667)" d="M0 0h96v96H0z"/></clipPath><filter id="filter0_d_4701_12750" x="-3.254" y="3.5" width="103.842" height="93" filterUnits="userSpaceOnUse" color-interpolation-filters="sRGB"><feFlood flood-opacity="0" result="BackgroundImageFix"/><feColorMatrix in="SourceAlpha" values="0 0 0 0 0 0 0 0 0 0 0 0 0 0 0 0 0 0 127 0" result="hardAlpha"/><feOffset/><feGaussianBlur stdDeviation="10"/><feComposite in2="hardAlpha" operator="out"/><feColorMatrix values="0 0 0 0 1 0 0 0 0 0.6 0 0 0 0 0 0 0 0 0.7 0"/><feBlend in2="BackgroundImageFix" result="effect1_dropShadow_4701_12750"/><feBlend in="SourceGraphic" in2="effect1_dropShadow_4701_12750" result="shape"/></filter></defs></symbol><symbol id="sprite-info" viewBox="0 0 1024 1024"><title/><path d="M512.001 0C229.376 0 0 229.375 0 511.999s229.375 511.999 512.001 511.999c282.624 0 511.999-229.375 511.999-511.999S794.625 0 512.001 0zm51.2 767.999H460.8v-102.4h102.401v102.4zm0-204.799H460.8V256.001h102.401V563.2z"/></symbol><symbol fill="none" id="sprite-lucky" viewBox="0 0 96 96"><title>lucky</title><g filter="url(#filter0_d_4701_12599)" stroke="#83C600" stroke-width="5" stroke-linecap="round" stroke-linejoin="round"><path d="M24.035 54.894c.655 2.615 3.405 4.586 5.815 4.644 4.599.143 15.806-8.677 15.806-8.677s-8.963 11.204-8.681 15.737c.137 2.537 2.03 5.18 4.644 5.815a6.155 6.155 0 001.6.212c1.484 0 2.791-.529 4.118-1.65.273-.232.527-.486.742-.761.234.275.468.529.741.761 1.347 1.121 2.654 1.65 4.118 1.65.526 0 1.053-.085 1.6-.212 2.615-.655 4.586-3.405 4.644-5.815.143-4.599-8.67-15.74-8.67-15.74s11.139 8.823 15.737 8.68c2.41-.058 5.16-2.03 5.816-4.644.127-.547.211-1.073.211-1.6 0-1.464-.529-2.771-1.65-4.118a6.564 6.564 0 00-.76-.741c.274-.215.528-.469.76-.742 1.121-1.327 1.65-2.634 1.65-4.117a6.15 6.15 0 00-.211-1.6c-.635-2.615-3.278-4.508-5.816-4.645-4.533-.282-15.753 8.736-15.753 8.736s8.962-11.203 8.68-15.736c-.136-2.538-2.03-5.181-4.644-5.816a6.155 6.155 0 00-1.6-.211c-1.483 0-2.79.528-4.118 1.65a5.285 5.285 0 00-.741.76 6.555 6.555 0 00-.742-.76c-1.346-1.122-2.654-1.65-4.117-1.65-.527 0-1.054.084-1.6.211-2.615.656-4.586 3.405-4.645 5.816-.143 4.598 8.68 15.737 8.68 15.737S34.384 37.049 29.85 37.33c-2.537.137-5.18 2.03-5.815 4.644a6.155 6.155 0 00-.212 1.6c0 1.484.529 2.791 1.65 4.118.232.273.486.527.761.742a6.564 6.564 0 00-.761.741c-1.121 1.347-1.65 2.654-1.65 4.118 0 .527.085 1.053.212 1.6z" fill="#83C600" fill-opacity=".3"/><path d="M45.619 50.956S31.84 63.248 31.225 69.06c-.372 3.25 1.462 7.01 4.644 8.377"/></g><path d="M24.618 9.401C38.998.668 57.197.684 71.563 9.447M9.479 24.487C.667 38.883.652 57.144 9.434 71.552m15.125 15.125c14.408 8.78 32.668 8.765 47.063-.046M86.708 71.49c8.733-14.38 8.718-32.578-.046-46.944" stroke="#0700D0" stroke-width="2.5" stroke-linecap="round" stroke-linejoin="round"/><circle cx="79.957" cy="79.956" r="4.304" transform="rotate(-45 79.957 79.956)" stroke="#83C600" stroke-width="2.5" stroke-linecap="round" stroke-linejoin="round"/><circle cx="16.043" cy="16.044" r="4.304" transform="rotate(-45 16.043 16.044)" stroke="#83C600" stroke-width="2.5" stroke-linecap="round" stroke-linejoin="round"/><circle cx="16.044" cy="79.956" r="4.304" transform="rotate(-45 16.044 79.956)" stroke="#83C600" stroke-width="2.5" stroke-linecap="round" stroke-linejoin="round"/><circle cx="79.957" cy="16.044" r="4.304" transform="rotate(-45 79.957 16.044)" stroke="#83C600" stroke-width="2.5" stroke-linecap="round" stroke-linejoin="round"/><defs><filter id="filter0_d_4701_12599" x="1.323" y="1.804" width="93.453" height="98.134" filterUnits="userSpaceOnUse" color-interpolation-filters="sRGB"><feFlood flood-opacity="0" result="BackgroundImageFix"/><feColorMatrix in="SourceAlpha" values="0 0 0 0 0 0 0 0 0 0 0 0 0 0 0 0 0 0 127 0" result="hardAlpha"/><feOffset/><feGaussianBlur stdDeviation="10"/><feComposite in2="hardAlpha" operator="out"/><feColorMatrix values="0 0 0 0 0.513726 0 0 0 0 0.776471 0 0 0 0 0 0 0 0 0.7 0"/><feBlend in2="BackgroundImageFix" result="effect1_dropShadow_4701_12599"/><feBlend in="SourceGraphic" in2="effect1_dropShadow_4701_12599" result="shape"/></filter></defs></symbol><symbol class="ldi-47ibm8" preserveAspectRatio="xMidYMid" style="width:525px;webkit-user-select:none;webkit-transform-origin:262.5px 262.5px;webkit-perspective-origin:262.5px 262.5px;webkit-logical-width:525px;webkit-logical-height:525px;user-select:none;transform-origin:262.5px 262.5px;r:0;perspective-origin:262.5px 262.5px;overflow-y:hidden;overflow-x:hidden;inline-size:525px;height:525px;d:none;block-size:525px;background:0 0/auto padding-box border-box" pointer-events="all" overflow="hidden" display="block" id="sprite-ok" viewBox="0 0 100 100"><title>ok</title><svg version="1.1" id="圖層_1" xmlns="http://www.w3.org/2000/svg" x="0" y="0" viewBox="0 0 100 100" xml:space="preserve" style="x:0;webkit-user-select:none;webkit-transform-origin:50px 50px;webkit-perspective-origin:0 0;user-select:none;transform-origin:50px 50px;r:0;perspective-origin:0 0;overflow-y:hidden;overflow-x:hidden" pointer-events="all" overflow="hidden" display="block"><g style="x:0;webkit-user-select:none;webkit-transform-origin:50px 50px;webkit-perspective-origin:0 0;user-select:none;transform-origin:50px 50px;r:0;perspective-origin:0 0"><g style="x:0;webkit-user-select:none;webkit-transform-origin:50px 50px;webkit-transform:matrix(.7,0,0,.7,0,0);webkit-perspective-origin:0 0;user-select:none;transform-origin:50px 50px;r:0;perspective-origin:0 0"><g style="x:0;webkit-user-select:none;webkit-transform-origin:50px 50px;webkit-perspective-origin:0 0;user-select:none;transform-origin:50px 50px;r:0;perspective-origin:0 0"><g style="webkit-user-select:none;webkit-perspective-origin:0 0;user-select:none;perspective-origin:0 0" transform="scale(.7)"><style/><g style="y:0;x:0;webkit-user-select:none;webkit-transform-origin:50px 50px;webkit-perspective-origin:0 0;webkit-animation-duration:2.2s;webkit-animation-delay:.169231s;webkit-animation:2.2s ease .169231s 1 normal none running none;user-select:none;transform-origin:50px 50px;r:0;perspective-origin:0 0;d:none"><circle cx="50" cy="50" r="40" stroke="#3c3" style="webkit-user-select:none;webkit-perspective-origin:0 0;user-select:none;r:40px;perspective-origin:0 0;cy:50px;cx:50px" stroke-width="8" stroke-miterlimit="10" fill="none"/></g><g style="x:0;webkit-user-select:none;webkit-transform-origin:50px 50px;webkit-perspective-origin:0 0;user-select:none;transform-origin:50px 50px;r:0;perspective-origin:0 0"><g style="webkit-user-select:none;webkit-perspective-origin:0 0;user-select:none;perspective-origin:0 0"><g style="y:0;x:0;webkit-user-select:none;webkit-transform-origin:50px 50px;webkit-perspective-origin:0 0;webkit-animation-duration:2.2s;webkit-animation-delay:.338462s;webkit-animation:2.2s ease .338462s 1 normal none running none;user-select:none;transform-origin:50px 50px;r:0;perspective-origin:0 0;d:none" class="ld"><path fill="#3c3" style="webkit-user-select:none;webkit-perspective-origin:0 0;user-select:none;r:0;perspective-origin:0 0" d="M43.7 69.4L25 47.7l3.9-3.9 14.8 12.6 28.6-25.8 2.7 2.7z"/></g></g></g></g></g></g></g><style>@keyframes ldt-bounce-in{0%{-webkit-transform:scale(0);transform:scale(0)}5%{-webkit-transform:scale(.0846);transform:scale(.0846)}6%{-webkit-transform:scale(.191);transform:scale(.191)}7%{-webkit-transform:scale(.3255);transform:scale(.3255)}8%{-webkit-transform:scale(.4804);transform:scale(.4804)}9%{-webkit-transform:scale(.646);transform:scale(.646)}10%{-webkit-transform:scale(.8116);transform:scale(.8116)}11%{-webkit-transform:scale(.9665);transform:scale(.9665)}12%{-webkit-transform:scale(1.1);transform:scale(1.1)}13%{-webkit-transform:scale(1.2069);transform:scale(1.2069)}14%{-webkit-transform:scale(1.2796);transform:scale(1.2796)}19%{-webkit-transform:scale(1.1558);transform:scale(1.1558)}20%{-webkit-transform:scale(1.07);transform:scale(1.07)}21%{-webkit-transform:scale(.9823);transform:scale(.9823)}22%{-webkit-transform:scale(.901);transform:scale(.901)}23%{-webkit-transform:scale(.8328);transform:scale(.8328)}25%{-webkit-transform:scale(.7551);transform:scale(.7551)}29%{-webkit-transform:scale(.8516);transform:scale(.8516)}31%{-webkit-transform:scale(.973);transform:scale(.973)}33%{-webkit-transform:scale(1.0857);transform:scale(1.0857)}35%{-webkit-transform:scale(1.1538);transform:scale(1.1538)}40%{-webkit-transform:scale(1.0771);transform:scale(1.0771)}42%{-webkit-transform:scale(.9954);transform:scale(.9954)}45%{-webkit-transform:scale(.9057);transform:scale(.9057)}52%{-webkit-transform:scale(.9908);transform:scale(.9908)}56%{-webkit-transform:scale(1.0623);transform:scale(1.0623)}64%{-webkit-transform:scale(.9845);transform:scale(.9845)}}@-webkit-keyframes ldt-bounce-in{0%{-webkit-transform:scale(0);transform:scale(0)}5%{-webkit-transform:scale(.0846);transform:scale(.0846)}6%{-webkit-transform:scale(.191);transform:scale(.191)}7%{-webkit-transform:scale(.3255);transform:scale(.3255)}8%{-webkit-transform:scale(.4804);transform:scale(.4804)}9%{-webkit-transform:scale(.646);transform:scale(.646)}10%{-webkit-transform:scale(.8116);transform:scale(.8116)}11%{-webkit-transform:scale(.9665);transform:scale(.9665)}12%{-webkit-transform:scale(1.1);transform:scale(1.1)}13%{-webkit-transform:scale(1.2069);transform:scale(1.2069)}14%{-webkit-transform:scale(1.2796);transform:scale(1.2796)}19%{-webkit-transform:scale(1.1558);transform:scale(1.1558)}20%{-webkit-transform:scale(1.07);transform:scale(1.07)}21%{-webkit-transform:scale(.9823);transform:scale(.9823)}22%{-webkit-transform:scale(.901);transform:scale(.901)}23%{-webkit-transform:scale(.8328);transform:scale(.8328)}25%{-webkit-transform:scale(.7551);transform:scale(.7551)}29%{-webkit-transform:scale(.8516);transform:scale(.8516)}31%{-webkit-transform:scale(.973);transform:scale(.973)}33%{-webkit-transform:scale(1.0857);transform:scale(1.0857)}35%{-webkit-transform:scale(1.1538);transform:scale(1.1538)}40%{-webkit-transform:scale(1.0771);transform:scale(1.0771)}42%{-webkit-transform:scale(.9954);transform:scale(.9954)}45%{-webkit-transform:scale(.9057);transform:scale(.9057)}52%{-webkit-transform:scale(.9908);transform:scale(.9908)}56%{-webkit-transform:scale(1.0623);transform:scale(1.0623)}64%{-webkit-transform:scale(.9845);transform:scale(.9845)}}</style></svg></symbol><symbol id="sprite-quote" viewBox="0 0 1024 1024"><title/><path d="M425.942 128v315.35c0 243.371-159.191 408.321-383.276 452.651L.213 804.225c103.766-39.127 170.453-155.222 170.453-249.559H0V128h425.943zM1024 128v315.35c0 243.371-159.914 408.363-384 452.651l-42.496-91.776C701.312 765.098 768 649.003 768 554.666H598.057V128H1024z"/></symbol><symbol fill="none" id="sprite-roulete" viewBox="0 0 129 129"><title>roulete</title><path d="M64.34 112.092c26.51 0 48-21.49 48-48s-21.49-48-48-48-48 21.49-48 48 21.49 48 48 48z" fill="#498BFF" fill-opacity=".32" stroke="#498BFF" stroke-width="8"/><path d="M64.339 97.693c18.556 0 33.6-15.044 33.6-33.6 0-18.557-15.044-33.6-33.6-33.6-18.557 0-33.6 15.043-33.6 33.6 0 18.556 15.043 33.6 33.6 33.6z" stroke="#498BFF" stroke-width="8"/><path d="M61.942 40.092a2.4 2.4 0 014.8 0v16.8h-4.8v-16.8zm0 31.2h4.8v16.8a2.4 2.4 0 11-4.8 0v-16.8zm26.4-9.6a2.4 2.4 0 110 4.8h-16.8v-4.8h16.8zm-31.2 0v4.8h-16.8a2.4 2.4 0 010-4.8h16.8zm33.865 39.734c5.891 0 10.667-4.776 10.667-10.667s-4.776-10.667-10.667-10.667S80.34 84.868 80.34 90.76s4.776 10.667 10.667 10.667z" fill="#498BFF"/><path d="M64.339 73.693a9.6 9.6 0 100-19.2 9.6 9.6 0 000 19.2z" stroke="#498BFF" stroke-width="8"/></symbol><symbol id="sprite-search" viewBox="0 0 1024 1024"><title/><path d="M731.848 644.025h-46.253l-16.394-15.808c57.377-66.744 91.92-153.395 91.92-247.657C761.121 170.374 590.747 0 380.56 0S0 170.373 0 380.56s170.374 380.56 380.56 380.56c94.262 0 180.913-34.543 247.658-91.92l15.808 16.394v46.253L936.764 1024 1024 936.764 731.847 644.026zm-351.287 0c-145.784 0-263.464-117.68-263.464-263.464s117.68-263.464 263.464-263.464 263.465 117.68 263.465 263.464-117.681 263.464-263.465 263.464z"/></symbol></svg>