<svg xmlns="http://www.w3.org/2000/svg" xmlns:xlink="http://www.w3.org/1999/xlink"><symbol fill="none" id="sprite-cherry" viewBox="0 0 165 174"><title>cherry</title><g filter="url(#filter0_d_1219_628)" stroke="#FF40E4" stroke-width="8"><path d="M106.28 132.846c12.18 0 22.054-9.874 22.054-22.054 0-12.18-9.874-22.054-22.054-22.054-12.18 0-22.054 9.874-22.054 22.054 0 12.18 9.874 22.054 22.054 22.054zm-44.515 4.901c12.18 0 22.054-9.874 22.054-22.054 0-12.18-9.874-22.054-22.054-22.054-12.18 0-22.054 9.874-22.054 22.054 0 12.18 9.873 22.054 22.054 22.054zM98.93 58.843C92.067 45.61 78.344 36.298 62.661 36.298c-9.802-.49-18.133 2.94-24.995 8.332 6.862 13.232 20.584 22.544 36.267 22.544 9.312 0 18.134-2.94 24.995-8.331z" fill="#FF40E4" fill-opacity=".32"/><path d="M67.074 93.639c0-10.292 3.92-19.114 9.802-26.465m22.054-8.331c2.45 5.39 4.41 11.762 4.41 18.133 0 4.41-.49 8.822-1.96 12.742"/></g><defs><filter id="filter0_d_1219_628" x=".592" y=".252" width="163.743" height="173.495" filterUnits="userSpaceOnUse" color-interpolation-filters="sRGB"><feFlood flood-opacity="0" result="BackgroundImageFix"/><feColorMatrix in="SourceAlpha" values="0 0 0 0 0 0 0 0 0 0 0 0 0 0 0 0 0 0 127 0" result="hardAlpha"/><feOffset/><feGaussianBlur stdDeviation="16"/><feComposite in2="hardAlpha" operator="out"/><feColorMatrix values="0 0 0 0 1 0 0 0 0 0.25098 0 0 0 0 0.894118 0 0 0 0.8 0"/><feBlend in2="BackgroundImageFix" result="effect1_dropShadow_1219_628"/><feBlend in="SourceGraphic" in2="effect1_dropShadow_1219_628" result="shape"/></filter></defs></symbol><symbol id="sprite-crown-tabs" viewBox="0 0 1024 1024"><title/><path d="M249.418 894.311c0-23.321 18.906-42.227 42.227-42.227h439.467c23.322 0 42.227 18.906 42.227 42.227s-18.905 42.227-42.227 42.227H291.645c-23.321 0-42.227-18.905-42.227-42.227zM511.399 216.1a42.228 42.228 0 0139.596 27.553l78.058 210.636c9.877 26.654 42.735 36.132 65.291 18.835l158.97-121.905c14.474-11.099 34.439-11.65 49.504-1.367s21.823 29.077 16.759 46.599L825.064 723.49C809.4 777.69 759.781 815 703.363 815H319.435c-56.418 0-106.037-37.309-121.7-91.51l-94.514-327.039c-5.064-17.522 1.695-36.316 16.76-46.599s35.029-9.732 49.502 1.367l158.97 121.905c22.557 17.297 55.414 7.817 65.292-18.835l78.058-210.636a42.228 42.228 0 0139.595-27.553zm0 163.745l-38.463 103.79c-29.632 79.96-128.205 108.396-195.873 56.506l-57.048-43.747 58.855 203.649c5.22 18.067 21.761 30.504 40.566 30.504h383.928c18.807 0 35.346-12.437 40.567-30.504l58.854-203.649-57.048 43.747c-67.667 51.89-166.241 23.454-195.873-56.506l-38.463-103.79z"/><path d="M920.845 306.597c-9.021 0-16.333 7.313-16.333 16.333s7.313 16.333 16.333 16.333c9.021 0 16.333-7.313 16.333-16.333s-7.313-16.333-16.333-16.333zM820.058 322.93c0-55.663 45.124-100.787 100.787-100.787s100.787 45.124 100.787 100.787c0 55.663-45.124 100.787-100.787 100.787S820.058 378.593 820.058 322.93zM511.402 171.917c-9.021 0-16.333 7.313-16.333 16.333s7.313 16.333 16.333 16.333c9.021 0 16.333-7.313 16.333-16.333s-7.313-16.333-16.333-16.333zM410.615 188.25c0-55.663 45.124-100.787 100.787-100.787s100.787 45.124 100.787 100.787-45.125 100.787-100.787 100.787c-55.663 0-100.787-45.124-100.787-100.787zM103.154 306.6c-9.021 0-16.333 7.313-16.333 16.333s7.313 16.332 16.333 16.332 16.333-7.313 16.333-16.332c0-9.021-7.313-16.333-16.333-16.333zM2.367 322.934c0-55.663 45.124-100.787 100.787-100.787s100.787 45.124 100.787 100.787c0 55.662-45.124 100.787-100.787 100.787S2.367 378.596 2.367 322.934z"/></symbol><symbol fill="none" id="sprite-crown" viewBox="0 0 184 167"><title>crown</title><g filter="url(#filter0_d_1219_4128)"><path d="M63.877 130.113h56.09" stroke="#FFA608" stroke-width="8" stroke-linecap="round" stroke-linejoin="round"/><path d="M91.924 48.941l11.272 30.415c1.871 5.05 8.096 6.846 12.369 3.569l23.278-17.85-12.643 43.747a7.999 7.999 0 01-7.685 5.779h-53.18a8 8 0 01-7.686-5.779L45.005 65.074l23.279 17.85c4.273 3.277 10.498 1.482 12.37-3.568l11.27-30.415z" fill="#FFA608" fill-opacity=".32" stroke="#FFA608" stroke-width="8"/><circle cx="144.183" cy="57.187" fill="#FFA608" r="7.474"/><circle cx="91.925" cy="39.998" fill="#FFA608" r="7.474"/><circle cx="39.819" cy="57.187" fill="#FFA608" r="7.474"/></g><defs><filter id="filter0_d_1219_4128" x=".345" y=".523" width="183.312" height="165.59" filterUnits="userSpaceOnUse" color-interpolation-filters="sRGB"><feFlood flood-opacity="0" result="BackgroundImageFix"/><feColorMatrix in="SourceAlpha" values="0 0 0 0 0 0 0 0 0 0 0 0 0 0 0 0 0 0 127 0" result="hardAlpha"/><feOffset/><feGaussianBlur stdDeviation="16"/><feComposite in2="hardAlpha" operator="out"/><feColorMatrix values="0 0 0 0 1 0 0 0 0 0.65098 0 0 0 0 0.0313726 0 0 0 0.8 0"/><feBlend in2="BackgroundImageFix" result="effect1_dropShadow_1219_4128"/><feBlend in="SourceGraphic" in2="effect1_dropShadow_1219_4128" result="shape"/></filter></defs></symbol><symbol fill="none" id="sprite-lucky" viewBox="0 0 172 180"><title>lucky</title><g filter="url(#filter0_d_1219_6781)" stroke="#83C600" stroke-width="8" stroke-linecap="round" stroke-linejoin="round"><path d="M37.33 98.276c1.328 5.3 6.9 9.294 11.787 9.413 9.32.29 32.033-17.587 32.033-17.587s-18.165 22.708-17.594 31.894c.277 5.144 4.114 10.501 9.413 11.787 1.108.3 2.215.429 3.244.429 3.005 0 5.655-1.072 8.345-3.343a10.74 10.74 0 001.502-1.543c.475.557.95 1.071 1.503 1.543 2.73 2.271 5.38 3.343 8.346 3.343 1.067 0 2.135-.172 3.243-.429 5.299-1.328 9.294-6.9 9.413-11.787.29-9.319-17.572-31.9-17.572-31.9s22.575 17.883 31.894 17.593c4.886-.119 10.458-4.113 11.787-9.413.257-1.107.429-2.175.429-3.243 0-2.966-1.072-5.616-3.344-8.345-.471-.554-.985-1.029-1.543-1.503.558-.435 1.072-.95 1.543-1.503 2.272-2.69 3.344-5.34 3.344-8.345 0-1.028-.129-2.136-.429-3.243-1.286-5.3-6.644-9.136-11.787-9.413-9.187-.572-31.927 17.706-31.927 17.706s18.164-22.707 17.593-31.894c-.277-5.144-4.113-10.501-9.413-11.787a12.473 12.473 0 00-3.243-.429c-3.006 0-5.656 1.072-8.345 3.344a10.71 10.71 0 00-1.503 1.543c-.475-.558-.95-1.072-1.503-1.543-2.73-2.272-5.379-3.344-8.345-3.344-1.068 0-2.136.172-3.243.429-5.3 1.329-9.295 6.9-9.413 11.787-.29 9.32 17.593 31.894 17.593 31.894S58.303 62.11 49.117 62.681c-5.144.277-10.501 4.113-11.787 9.413a12.472 12.472 0 00-.429 3.243c0 3.006 1.072 5.656 3.343 8.345.472.554.986 1.068 1.543 1.503-.557.474-1.071.95-1.543 1.503-2.271 2.729-3.343 5.379-3.343 8.345 0 1.068.171 2.136.429 3.243z" fill="#83C600" fill-opacity=".32"/><path d="M81.075 90.295s-27.925 24.913-29.173 36.693c-.753 6.586 2.964 14.208 9.413 16.978"/></g><defs><filter id="filter0_d_1219_6781" x=".901" y=".277" width="170.202" height="179.689" filterUnits="userSpaceOnUse" color-interpolation-filters="sRGB"><feFlood flood-opacity="0" result="BackgroundImageFix"/><feColorMatrix in="SourceAlpha" values="0 0 0 0 0 0 0 0 0 0 0 0 0 0 0 0 0 0 127 0" result="hardAlpha"/><feOffset/><feGaussianBlur stdDeviation="16"/><feComposite in2="hardAlpha" operator="out"/><feColorMatrix values="0 0 0 0 0.513726 0 0 0 0 0.776471 0 0 0 0 0 0 0 0 0.8 0"/><feBlend in2="BackgroundImageFix" result="effect1_dropShadow_1219_6781"/><feBlend in="SourceGraphic" in2="effect1_dropShadow_1219_6781" result="shape"/></filter></defs></symbol><symbol class="ldi-47ibm8" preserveAspectRatio="xMidYMid" style="width:525px;webkit-user-select:none;webkit-transform-origin:262.5px 262.5px;webkit-perspective-origin:262.5px 262.5px;webkit-logical-width:525px;webkit-logical-height:525px;user-select:none;transform-origin:262.5px 262.5px;r:0;perspective-origin:262.5px 262.5px;overflow-y:hidden;overflow-x:hidden;inline-size:525px;height:525px;d:none;block-size:525px;background:0 0/auto padding-box border-box" pointer-events="all" overflow="hidden" display="block" id="sprite-ok" viewBox="0 0 100 100"><title>ok</title><svg version="1.1" id="圖層_1" xmlns="http://www.w3.org/2000/svg" x="0" y="0" viewBox="0 0 100 100" xml:space="preserve" style="x:0;webkit-user-select:none;webkit-transform-origin:50px 50px;webkit-perspective-origin:0 0;user-select:none;transform-origin:50px 50px;r:0;perspective-origin:0 0;overflow-y:hidden;overflow-x:hidden" pointer-events="all" overflow="hidden" display="block"><g style="x:0;webkit-user-select:none;webkit-transform-origin:50px 50px;webkit-perspective-origin:0 0;user-select:none;transform-origin:50px 50px;r:0;perspective-origin:0 0"><g style="x:0;webkit-user-select:none;webkit-transform-origin:50px 50px;webkit-transform:matrix(.7,0,0,.7,0,0);webkit-perspective-origin:0 0;user-select:none;transform-origin:50px 50px;r:0;perspective-origin:0 0"><g style="x:0;webkit-user-select:none;webkit-transform-origin:50px 50px;webkit-perspective-origin:0 0;user-select:none;transform-origin:50px 50px;r:0;perspective-origin:0 0"><g style="webkit-user-select:none;webkit-perspective-origin:0 0;user-select:none;perspective-origin:0 0" transform="scale(.7)"><style/><g style="y:0;x:0;webkit-user-select:none;webkit-transform-origin:50px 50px;webkit-perspective-origin:0 0;webkit-animation-duration:2.2s;webkit-animation-delay:.169231s;webkit-animation:2.2s ease .169231s 1 normal none running none;user-select:none;transform-origin:50px 50px;r:0;perspective-origin:0 0;d:none"><circle cx="50" cy="50" r="40" stroke="#3c3" style="webkit-user-select:none;webkit-perspective-origin:0 0;user-select:none;r:40px;perspective-origin:0 0;cy:50px;cx:50px" stroke-width="8" stroke-miterlimit="10" fill="none"/></g><g style="x:0;webkit-user-select:none;webkit-transform-origin:50px 50px;webkit-perspective-origin:0 0;user-select:none;transform-origin:50px 50px;r:0;perspective-origin:0 0"><g style="webkit-user-select:none;webkit-perspective-origin:0 0;user-select:none;perspective-origin:0 0"><g style="y:0;x:0;webkit-user-select:none;webkit-transform-origin:50px 50px;webkit-perspective-origin:0 0;webkit-animation-duration:2.2s;webkit-animation-delay:.338462s;webkit-animation:2.2s ease .338462s 1 normal none running none;user-select:none;transform-origin:50px 50px;r:0;perspective-origin:0 0;d:none" class="ld"><path fill="#3c3" style="webkit-user-select:none;webkit-perspective-origin:0 0;user-select:none;r:0;perspective-origin:0 0" d="M43.7 69.4L25 47.7l3.9-3.9 14.8 12.6 28.6-25.8 2.7 2.7z"/></g></g></g></g></g></g></g><style>@keyframes ldt-bounce-in{0%{-webkit-transform:scale(0);transform:scale(0)}5%{-webkit-transform:scale(.0846);transform:scale(.0846)}6%{-webkit-transform:scale(.191);transform:scale(.191)}7%{-webkit-transform:scale(.3255);transform:scale(.3255)}8%{-webkit-transform:scale(.4804);transform:scale(.4804)}9%{-webkit-transform:scale(.646);transform:scale(.646)}10%{-webkit-transform:scale(.8116);transform:scale(.8116)}11%{-webkit-transform:scale(.9665);transform:scale(.9665)}12%{-webkit-transform:scale(1.1);transform:scale(1.1)}13%{-webkit-transform:scale(1.2069);transform:scale(1.2069)}14%{-webkit-transform:scale(1.2796);transform:scale(1.2796)}19%{-webkit-transform:scale(1.1558);transform:scale(1.1558)}20%{-webkit-transform:scale(1.07);transform:scale(1.07)}21%{-webkit-transform:scale(.9823);transform:scale(.9823)}22%{-webkit-transform:scale(.901);transform:scale(.901)}23%{-webkit-transform:scale(.8328);transform:scale(.8328)}25%{-webkit-transform:scale(.7551);transform:scale(.7551)}29%{-webkit-transform:scale(.8516);transform:scale(.8516)}31%{-webkit-transform:scale(.973);transform:scale(.973)}33%{-webkit-transform:scale(1.0857);transform:scale(1.0857)}35%{-webkit-transform:scale(1.1538);transform:scale(1.1538)}40%{-webkit-transform:scale(1.0771);transform:scale(1.0771)}42%{-webkit-transform:scale(.9954);transform:scale(.9954)}45%{-webkit-transform:scale(.9057);transform:scale(.9057)}52%{-webkit-transform:scale(.9908);transform:scale(.9908)}56%{-webkit-transform:scale(1.0623);transform:scale(1.0623)}64%{-webkit-transform:scale(.9845);transform:scale(.9845)}}@-webkit-keyframes ldt-bounce-in{0%{-webkit-transform:scale(0);transform:scale(0)}5%{-webkit-transform:scale(.0846);transform:scale(.0846)}6%{-webkit-transform:scale(.191);transform:scale(.191)}7%{-webkit-transform:scale(.3255);transform:scale(.3255)}8%{-webkit-transform:scale(.4804);transform:scale(.4804)}9%{-webkit-transform:scale(.646);transform:scale(.646)}10%{-webkit-transform:scale(.8116);transform:scale(.8116)}11%{-webkit-transform:scale(.9665);transform:scale(.9665)}12%{-webkit-transform:scale(1.1);transform:scale(1.1)}13%{-webkit-transform:scale(1.2069);transform:scale(1.2069)}14%{-webkit-transform:scale(1.2796);transform:scale(1.2796)}19%{-webkit-transform:scale(1.1558);transform:scale(1.1558)}20%{-webkit-transform:scale(1.07);transform:scale(1.07)}21%{-webkit-transform:scale(.9823);transform:scale(.9823)}22%{-webkit-transform:scale(.901);transform:scale(.901)}23%{-webkit-transform:scale(.8328);transform:scale(.8328)}25%{-webkit-transform:scale(.7551);transform:scale(.7551)}29%{-webkit-transform:scale(.8516);transform:scale(.8516)}31%{-webkit-transform:scale(.973);transform:scale(.973)}33%{-webkit-transform:scale(1.0857);transform:scale(1.0857)}35%{-webkit-transform:scale(1.1538);transform:scale(1.1538)}40%{-webkit-transform:scale(1.0771);transform:scale(1.0771)}42%{-webkit-transform:scale(.9954);transform:scale(.9954)}45%{-webkit-transform:scale(.9057);transform:scale(.9057)}52%{-webkit-transform:scale(.9908);transform:scale(.9908)}56%{-webkit-transform:scale(1.0623);transform:scale(1.0623)}64%{-webkit-transform:scale(.9845);transform:scale(.9845)}}</style></svg></symbol><symbol id="sprite-quote" viewBox="0 0 1024 1024"><title/><path d="M425.942 128v315.35c0 243.371-159.191 408.321-383.276 452.651L.213 804.225c103.766-39.127 170.453-155.222 170.453-249.559H0V128h425.943zM1024 128v315.35c0 243.371-159.914 408.363-384 452.651l-42.496-91.776C701.312 765.098 768 649.003 768 554.666H598.057V128H1024z"/></symbol><symbol fill="none" id="sprite-roulete" viewBox="0 0 129 129"><title>roulete</title><path d="M64.34 112.092c26.51 0 48-21.49 48-48s-21.49-48-48-48-48 21.49-48 48 21.49 48 48 48z" fill="#498BFF" fill-opacity=".32" stroke="#498BFF" stroke-width="8"/><path d="M64.339 97.693c18.556 0 33.6-15.044 33.6-33.6 0-18.557-15.044-33.6-33.6-33.6-18.557 0-33.6 15.043-33.6 33.6 0 18.556 15.043 33.6 33.6 33.6z" stroke="#498BFF" stroke-width="8"/><path d="M61.942 40.092a2.4 2.4 0 014.8 0v16.8h-4.8v-16.8zm0 31.2h4.8v16.8a2.4 2.4 0 11-4.8 0v-16.8zm26.4-9.6a2.4 2.4 0 110 4.8h-16.8v-4.8h16.8zm-31.2 0v4.8h-16.8a2.4 2.4 0 010-4.8h16.8zm33.865 39.734c5.891 0 10.667-4.776 10.667-10.667s-4.776-10.667-10.667-10.667S80.34 84.868 80.34 90.76s4.776 10.667 10.667 10.667z" fill="#498BFF"/><path d="M64.339 73.693a9.6 9.6 0 100-19.2 9.6 9.6 0 000 19.2z" stroke="#498BFF" stroke-width="8"/></symbol></svg>