<svg width="165" height="174" viewBox="0 0 165 174" fill="none" xmlns="http://www.w3.org/2000/svg">
<g filter="url(#filter0_d_1219_628)">
<path d="M106.28 132.846C118.46 132.846 128.334 122.972 128.334 110.792C128.334 98.6121 118.46 88.7382 106.28 88.7382C94.1001 88.7382 84.2261 98.6121 84.2261 110.792C84.2261 122.972 94.1001 132.846 106.28 132.846Z" fill="#FF40E4" fill-opacity="0.32" stroke="#FF40E4" stroke-width="8.00001"/>
<path d="M61.7647 137.747C73.9449 137.747 83.8189 127.873 83.8189 115.693C83.8189 103.513 73.9449 93.6387 61.7647 93.6387C49.5845 93.6387 39.7105 103.513 39.7105 115.693C39.7105 127.873 49.5845 137.747 61.7647 137.747Z" fill="#FF40E4" fill-opacity="0.32" stroke="#FF40E4" stroke-width="8.00001"/>
<path d="M98.9292 58.8426C92.0679 45.6101 78.3453 36.2984 62.6623 36.2984C52.8604 35.8083 44.5288 39.2389 37.6675 44.63C44.5288 57.8624 58.2515 67.1742 73.9344 67.1742C83.2462 67.1742 92.0679 64.2336 98.9292 58.8426Z" fill="#FF40E4" fill-opacity="0.32" stroke="#FF40E4" stroke-width="8.00001"/>
<path d="M67.0739 93.6388C67.0739 83.3469 70.9946 74.5252 76.8757 67.1738" stroke="#FF40E4" stroke-width="8.00001"/>
<path d="M98.9291 58.8425C101.38 64.2335 103.34 70.6047 103.34 76.9759C103.34 81.3868 102.85 85.7976 101.38 89.7183" stroke="#FF40E4" stroke-width="8.00001"/>
</g>
<defs>
<filter id="filter0_d_1219_628" x="0.591877" y="0.251789" width="163.743" height="173.495" filterUnits="userSpaceOnUse" color-interpolation-filters="sRGB">
<feFlood flood-opacity="0" result="BackgroundImageFix"/>
<feColorMatrix in="SourceAlpha" type="matrix" values="0 0 0 0 0 0 0 0 0 0 0 0 0 0 0 0 0 0 127 0" result="hardAlpha"/>
<feOffset/>
<feGaussianBlur stdDeviation="16"/>
<feComposite in2="hardAlpha" operator="out"/>
<feColorMatrix type="matrix" values="0 0 0 0 1 0 0 0 0 0.25098 0 0 0 0 0.894118 0 0 0 0.8 0"/>
<feBlend mode="normal" in2="BackgroundImageFix" result="effect1_dropShadow_1219_628"/>
<feBlend mode="normal" in="SourceGraphic" in2="effect1_dropShadow_1219_628" result="shape"/>
</filter>
</defs>
</svg>
