<!-- Generated by IcoMoon.io -->
<svg version="1.1" xmlns="http://www.w3.org/2000/svg" width="1024" height="1024" viewBox="0 0 1024 1024">
<title></title>
<g id="icomoon-ignore">
</g>
<path d="M249.418 894.311c0-23.321 18.906-42.227 42.227-42.227h439.467c23.322 0 42.227 18.906 42.227 42.227s-18.905 42.227-42.227 42.227h-439.467c-23.321 0-42.227-18.905-42.227-42.227z"></path>
<path d="M511.399 216.1c17.662 0 33.458 10.992 39.596 27.553l78.058 210.636c9.877 26.654 42.735 36.132 65.291 18.835l158.97-121.905c14.474-11.099 34.439-11.65 49.504-1.367s21.823 29.077 16.759 46.599l-94.513 327.039c-15.664 54.2-65.283 91.51-121.701 91.51h-383.928c-56.418 0-106.037-37.309-121.7-91.51l-94.514-327.039c-5.064-17.522 1.695-36.316 16.76-46.599s35.029-9.732 49.502 1.367l158.97 121.905c22.557 17.297 55.414 7.817 65.292-18.835l78.058-210.636c6.138-16.561 21.934-27.553 39.595-27.553zM511.399 379.845l-38.463 103.79c-29.632 79.96-128.205 108.396-195.873 56.506l-57.048-43.747 58.855 203.649c5.22 18.067 21.761 30.504 40.566 30.504h383.928c18.807 0 35.346-12.437 40.567-30.504l58.854-203.649-57.048 43.747c-67.667 51.89-166.241 23.454-195.873-56.506l-38.463-103.79z"></path>
<path d="M920.845 306.597c-9.021 0-16.333 7.313-16.333 16.333s7.313 16.333 16.333 16.333c9.021 0 16.333-7.313 16.333-16.333s-7.313-16.333-16.333-16.333zM820.058 322.93c0-55.663 45.124-100.787 100.787-100.787s100.787 45.124 100.787 100.787c0 55.663-45.124 100.787-100.787 100.787s-100.787-45.124-100.787-100.787z"></path>
<path d="M511.402 171.917c-9.021 0-16.333 7.313-16.333 16.333s7.313 16.333 16.333 16.333c9.021 0 16.333-7.313 16.333-16.333s-7.313-16.333-16.333-16.333zM410.615 188.25c0-55.663 45.124-100.787 100.787-100.787s100.787 45.124 100.787 100.787-45.125 100.787-100.787 100.787c-55.663 0-100.787-45.124-100.787-100.787z"></path>
<path d="M103.154 306.6c-9.021 0-16.333 7.313-16.333 16.333s7.313 16.332 16.333 16.332 16.333-7.313 16.333-16.332c0-9.021-7.313-16.333-16.333-16.333zM2.367 322.934c0-55.663 45.124-100.787 100.787-100.787s100.787 45.124 100.787 100.787c0 55.662-45.124 100.787-100.787 100.787s-100.787-45.125-100.787-100.787z"></path>
</svg>
