<svg width="172" height="180" viewBox="0 0 172 180" fill="none" xmlns="http://www.w3.org/2000/svg">
<g filter="url(#filter0_d_1219_6781)">
<path d="M37.3297 98.276C38.6584 103.576 44.2305 107.57 49.1167 107.689C58.4361 107.979 81.1498 90.1021 81.1498 90.1021C81.1498 90.1021 62.9849 112.81 63.5564 121.996C63.8333 127.14 67.6696 132.497 72.9694 133.783C74.0768 134.083 75.1842 134.212 76.2125 134.212C79.2183 134.212 81.8682 133.14 84.5576 130.869C85.1113 130.397 85.6255 129.883 86.0605 129.326C86.5351 129.883 87.0097 130.397 87.5634 130.869C90.2924 133.14 92.9423 134.212 95.9085 134.212C96.9764 134.212 98.0443 134.04 99.1517 133.783C104.451 132.455 108.446 126.883 108.565 121.996C108.855 112.677 90.9927 90.0956 90.9927 90.0956C90.9927 90.0956 113.568 107.979 122.887 107.689C127.773 107.57 133.345 103.576 134.674 98.276C134.931 97.1686 135.103 96.1008 135.103 95.0329C135.103 92.0666 134.031 89.4168 131.759 86.6878C131.288 86.1341 130.774 85.6595 130.216 85.1849C130.774 84.7499 131.288 84.2357 131.759 83.682C134.031 80.9926 135.103 78.3427 135.103 75.3369C135.103 74.3086 134.974 73.2012 134.674 72.0938C133.388 66.7941 128.03 62.9577 122.887 62.6809C113.7 62.1094 90.9595 80.3871 90.9595 80.3871C90.9595 80.3871 109.124 57.6797 108.553 48.4929C108.276 43.3495 104.44 37.9918 99.14 36.706C98.0325 36.406 96.9251 36.2774 95.8968 36.2774C92.891 36.2774 90.2411 37.3489 87.5517 39.6206C86.998 40.0921 86.4839 40.6064 86.0488 41.1636C85.5742 40.6064 85.0996 40.0921 84.5459 39.6206C81.8169 37.3489 79.1671 36.2774 76.2008 36.2774C75.1329 36.2774 74.0651 36.4488 72.9577 36.706C67.6579 38.0347 63.6633 43.6067 63.5447 48.4929C63.2548 57.8123 81.1381 80.3871 81.1381 80.3871C81.1381 80.3871 58.3035 62.1094 49.1167 62.6809C43.9733 62.9577 38.6156 66.7941 37.3297 72.0938C37.0297 73.2012 36.9011 74.3086 36.9011 75.3369C36.9011 78.3427 37.9726 80.9926 40.2443 83.682C40.7158 84.2357 41.2301 84.7499 41.7873 85.1849C41.2301 85.6595 40.7158 86.1341 40.2443 86.6878C37.9726 89.4168 36.9011 92.0667 36.9011 95.0329C36.9011 96.1008 37.0725 97.1686 37.3297 98.276Z" fill="#83C600" fill-opacity="0.32" stroke="#83C600" stroke-width="8.00001" stroke-linecap="round" stroke-linejoin="round"/>
<path d="M81.0751 90.295C81.0751 90.295 53.1496 115.208 51.902 126.988C51.1489 133.574 54.8664 141.196 61.3151 143.966" stroke="#83C600" stroke-width="8.00001" stroke-linecap="round" stroke-linejoin="round"/>
</g>
<defs>
<filter id="filter0_d_1219_6781" x="0.901051" y="0.277302" width="170.202" height="179.689" filterUnits="userSpaceOnUse" color-interpolation-filters="sRGB">
<feFlood flood-opacity="0" result="BackgroundImageFix"/>
<feColorMatrix in="SourceAlpha" type="matrix" values="0 0 0 0 0 0 0 0 0 0 0 0 0 0 0 0 0 0 127 0" result="hardAlpha"/>
<feOffset/>
<feGaussianBlur stdDeviation="16"/>
<feComposite in2="hardAlpha" operator="out"/>
<feColorMatrix type="matrix" values="0 0 0 0 0.513726 0 0 0 0 0.776471 0 0 0 0 0 0 0 0 0.8 0"/>
<feBlend mode="normal" in2="BackgroundImageFix" result="effect1_dropShadow_1219_6781"/>
<feBlend mode="normal" in="SourceGraphic" in2="effect1_dropShadow_1219_6781" result="shape"/>
</filter>
</defs>
</svg>
