<svg width="96" height="96" viewBox="0 0 96 96" fill="none" xmlns="http://www.w3.org/2000/svg">
<g filter="url(#filter0_d_4701_12599)">
<path d="M24.0347 54.8939C24.6903 57.5088 27.4396 59.4797 29.8504 59.5383C34.4487 59.6813 45.6557 50.8609 45.6557 50.8609C45.6557 50.8609 36.6931 62.0648 36.975 66.5976C37.1116 69.1353 39.0045 71.7788 41.6194 72.4133C42.1658 72.5613 42.7122 72.6248 43.2196 72.6248C44.7027 72.6248 46.0101 72.0961 47.3371 70.9752C47.6103 70.7426 47.864 70.4888 48.0786 70.2139C48.3128 70.4888 48.547 70.7426 48.8202 70.9752C50.1666 72.0961 51.4741 72.6248 52.9377 72.6248C53.4645 72.6248 53.9914 72.5402 54.5378 72.4133C57.1527 71.7577 59.1237 69.0084 59.1822 66.5976C59.3252 61.9994 50.5122 50.8577 50.5122 50.8577C50.5122 50.8577 61.6507 59.6813 66.2489 59.5383C68.6598 59.4797 71.409 57.5088 72.0646 54.8939C72.1915 54.3475 72.2761 53.8206 72.2761 53.2937C72.2761 51.8302 71.7474 50.5227 70.6265 49.1763C70.3939 48.9031 70.1401 48.6689 69.8652 48.4347C70.1401 48.2201 70.3939 47.9664 70.6265 47.6932C71.7474 46.3662 72.2761 45.0588 72.2761 43.5757C72.2761 43.0683 72.2127 42.5219 72.0646 41.9755C71.4302 39.3606 68.7867 37.4678 66.2489 37.3312C61.7161 37.0492 50.4958 46.0675 50.4958 46.0675C50.4958 46.0675 59.4584 34.8636 59.1764 30.3308C59.0398 27.7931 57.1469 25.1496 54.532 24.5151C53.9856 24.3671 53.4392 24.3036 52.9319 24.3036C51.4488 24.3036 50.1413 24.8323 48.8144 25.9532C48.5412 26.1858 48.2875 26.4396 48.0728 26.7145C47.8387 26.4396 47.6045 26.1858 47.3313 25.9532C45.9848 24.8323 44.6774 24.3036 43.2138 24.3036C42.6869 24.3036 42.16 24.3882 41.6136 24.5151C38.9987 25.1707 37.0278 27.9199 36.9693 30.3308C36.8262 34.929 45.6499 46.0675 45.6499 46.0675C45.6499 46.0675 34.3832 37.0492 29.8504 37.3312C27.3127 37.4678 24.6692 39.3606 24.0347 41.9755C23.8867 42.5219 23.8232 43.0683 23.8232 43.5757C23.8232 45.0588 24.3519 46.3662 25.4728 47.6932C25.7054 47.9664 25.9592 48.2201 26.2341 48.4347C25.9592 48.6689 25.7054 48.9031 25.4728 49.1763C24.3519 50.5227 23.8232 51.8302 23.8232 53.2937C23.8232 53.8206 23.9078 54.3475 24.0347 54.8939Z" fill="#83C600" fill-opacity="0.3" stroke="#83C600" stroke-width="5" stroke-linecap="round" stroke-linejoin="round"/>
<path d="M45.6189 50.9558C45.6189 50.9558 31.8404 63.2479 31.2249 69.0601C30.8533 72.3096 32.6875 76.0704 35.8693 77.4369" stroke="#83C600" stroke-width="5" stroke-linecap="round" stroke-linejoin="round"/>
</g>
<path d="M24.618 9.40129C38.9973 0.668215 57.1969 0.683567 71.5628 9.44735M9.47929 24.4875C0.667474 38.8825 0.652294 57.1427 9.43375 71.5509M24.5586 86.6756C38.9668 95.4568 57.2268 95.4414 71.6216 86.6297M86.7077 71.4911C95.4407 57.1119 95.4255 38.9126 86.662 24.5468" stroke="#0700D0" stroke-width="2.5" stroke-linecap="round" stroke-linejoin="round"/>
<circle cx="79.9571" cy="79.9563" r="4.30414" transform="rotate(-45 79.9571 79.9563)" stroke="#83C600" stroke-width="2.5" stroke-linecap="round" stroke-linejoin="round"/>
<circle cx="16.043" cy="16.0436" r="4.30414" transform="rotate(-45 16.043 16.0436)" stroke="#83C600" stroke-width="2.5" stroke-linecap="round" stroke-linejoin="round"/>
<circle cx="16.044" cy="79.9563" r="4.30414" transform="rotate(-45 16.044 79.9563)" stroke="#83C600" stroke-width="2.5" stroke-linecap="round" stroke-linejoin="round"/>
<circle cx="79.9571" cy="16.0436" r="4.30414" transform="rotate(-45 79.9571 16.0436)" stroke="#83C600" stroke-width="2.5" stroke-linecap="round" stroke-linejoin="round"/>
<defs>
<filter id="filter0_d_4701_12599" x="1.32324" y="1.80359" width="93.4531" height="98.1339" filterUnits="userSpaceOnUse" color-interpolation-filters="sRGB">
<feFlood flood-opacity="0" result="BackgroundImageFix"/>
<feColorMatrix in="SourceAlpha" type="matrix" values="0 0 0 0 0 0 0 0 0 0 0 0 0 0 0 0 0 0 127 0" result="hardAlpha"/>
<feOffset/>
<feGaussianBlur stdDeviation="10"/>
<feComposite in2="hardAlpha" operator="out"/>
<feColorMatrix type="matrix" values="0 0 0 0 0.513726 0 0 0 0 0.776471 0 0 0 0 0 0 0 0 0.7 0"/>
<feBlend mode="normal" in2="BackgroundImageFix" result="effect1_dropShadow_4701_12599"/>
<feBlend mode="normal" in="SourceGraphic" in2="effect1_dropShadow_4701_12599" result="shape"/>
</filter>
</defs>
</svg>
