<svg width="129" height="129" viewBox="0 0 129 129" fill="none" xmlns="http://www.w3.org/2000/svg">
<path d="M64.3402 112.092C90.85 112.092 112.34 90.602 112.34 64.0923C112.34 37.5826 90.85 16.0923 64.3402 16.0923C37.8305 16.0923 16.3401 37.5826 16.3401 64.0923C16.3401 90.602 37.8305 112.092 64.3402 112.092Z" fill="#498BFF" fill-opacity="0.32" stroke="#498BFF" stroke-width="8.00001"/>
<path d="M64.3386 97.6927C82.8954 97.6927 97.9387 82.6494 97.9387 64.0927C97.9387 45.5359 82.8954 30.4927 64.3386 30.4927C45.7818 30.4927 30.7385 45.5359 30.7385 64.0927C30.7385 82.6494 45.7818 97.6927 64.3386 97.6927Z" stroke="#498BFF" stroke-width="8.00001"/>
<path d="M61.9417 40.0919C61.9417 39.4554 62.1946 38.8449 62.6447 38.3948C63.0948 37.9448 63.7052 37.6919 64.3417 37.6919C64.9782 37.6919 65.5887 37.9448 66.0388 38.3948C66.4889 38.8449 66.7417 39.4554 66.7417 40.0919V56.8919H61.9417V40.0919ZM61.9417 71.2919H66.7417V88.0919C66.7417 88.7284 66.4889 89.3389 66.0388 89.789C65.5887 90.239 64.9782 90.4919 64.3417 90.4919C63.7052 90.4919 63.0948 90.239 62.6447 89.789C62.1946 89.3389 61.9417 88.7284 61.9417 88.0919V71.2919ZM88.3418 61.6919C88.9783 61.6919 89.5888 61.9447 90.0389 62.3948C90.4889 62.8449 90.7418 63.4554 90.7418 64.0919C90.7418 64.7284 90.4889 65.3389 90.0389 65.789C89.5888 66.239 88.9783 66.4919 88.3418 66.4919H71.5417V61.6919H88.3418ZM57.1417 61.6919V66.4919H40.3417C39.7051 66.4919 39.0947 66.239 38.6446 65.789C38.1945 65.3389 37.9417 64.7284 37.9417 64.0919C37.9417 63.4554 38.1945 62.8449 38.6446 62.3948C39.0947 61.9447 39.7051 61.6919 40.3417 61.6919H57.1417Z" fill="#498BFF"/>
<path d="M91.007 101.426C96.8981 101.426 101.674 96.65 101.674 90.759C101.674 84.8679 96.8981 80.0923 91.007 80.0923C85.116 80.0923 80.3403 84.8679 80.3403 90.759C80.3403 96.65 85.116 101.426 91.007 101.426Z" fill="#498BFF"/>
<path d="M64.3386 73.6927C69.6405 73.6927 73.9386 69.3946 73.9386 64.0927C73.9386 58.7907 69.6405 54.4927 64.3386 54.4927C59.0366 54.4927 54.7385 58.7907 54.7385 64.0927C54.7385 69.3946 59.0366 73.6927 64.3386 73.6927Z" stroke="#498BFF" stroke-width="8.00001"/>
</svg>
